<svg version="1.1" viewBox="0 0 168.75 168.75" width="90" height="90" xmlns="http://www.w3.org/2000/svg"><path d="M80.578 41.836h9.844l0.352 0.352 0.914 1.195 0.844 1.195 0.984 1.336 1.828 2.531 0.141 0.352 0.07 1.336v9.422l-0.211 0.141h-6.68l-0.07 -0.07V48.656l-6.609 0.07 -0.07 67.922h6.68v-30.164l0.07 -0.141h0.141v-3.375h-3.094l-0.07 -5.906 0.07 -0.563 0.07 -0.07h9.563l0.141 0.07 0.07 8.086v26.648l-0.07 3.023 -0.211 1.758 -0.352 1.547 -0.211 0.633 -0.492 0.773 -0.703 0.914 -0.773 0.984 -0.703 0.914 -1.547 1.969h-9.914l-0.773 -0.914 -0.633 -0.773 -0.773 -0.914 -0.633 -0.773 -1.547 -1.828 -0.492 -0.773 -0.281 -0.914 -0.281 -1.688 -0.141 -2.18V49.008l0.141 -0.422 0.633 -0.844 0.984 -1.266 0.633 -0.773 0.773 -0.984 0.703 -0.914 0.844 -1.125h0.141l0.141 -0.281 0.422 -0.492z" fill="#fff"/><path d="M36.844 42.117h6.75l0.141 0.07 0.211 2.391 1.898 24.258 0.563 7.242 0.422 5.555 0.633 7.734 0.352 5.414 0.141 3.023 0.141 0.07 0.492 -7.945 0.773 -9.422 0.492 -6.539 0.773 -10.055 0.984 -12.516 0.633 -8.156 0.141 -1.055 0.141 -0.07h6.68l0.141 0.281 -0.563 5.625 -0.703 7.172 -0.633 6.328 -0.633 6.469 -0.703 7.172 -0.633 6.258 -0.492 5.133 -0.844 8.578 -0.633 6.258 -0.492 5.133 -0.844 8.578 -0.422 4.219 -0.422 4.148 -0.07 0.492 -0.07 0.07h-6.328l-0.07 -0.211 -1.266 -12.727 -0.914 -9.352 -1.336 -13.5 -1.617 -16.453 -1.969 -19.969 -0.844 -8.578 -0.07 -0.984z" fill="#fff"/><path d="M117.633 41.836h7.313l0.352 0.211 0.492 0.492v0.141l0.281 0.141 0.492 0.563 1.406 1.406 0.492 0.563 1.477 1.477 0.492 0.563 0.773 0.773v0.141h0.141l0.211 0.281 0.07 0.281v9.914l-0.141 0.141h-6.82l-0.07 -0.07V48.656h-6.75v27.492h6.328l0.563 0.492 1.266 1.266 0.492 0.563 0.773 0.773 0.492 0.563 0.773 0.773 0.492 0.563 0.773 0.773v0.141h0.141l0.492 0.563 0.352 0.422 0.07 0.352v18.07l-0.07 15.469 -0.703 0.773 -0.352 0.422h-0.141l-0.141 0.281 -2.953 2.953 -0.07 0.141h-0.141v0.141h-0.141v0.141h-0.141v0.141h-0.141v0.141h-0.141l-0.141 0.281h-0.141l-0.141 0.281h-0.141l-0.141 0.281h-0.141l-0.141 0.281 -0.563 0.563h-6.82l-1.125 -1.195 -0.563 -0.563 -0.492 -0.563 -0.563 -0.563 -0.492 -0.563 -0.914 -0.914 -0.492 -0.563 -0.633 -0.703 -0.422 -0.984 -0.422 -1.477 -0.281 -1.547 -0.141 -1.617v-10.828h6.961l0.07 0.422v14.273h6.68v-32.555h-7.102l-0.703 -0.703v-0.141h-0.141l-0.492 -0.563 -0.633 -0.633 -0.492 -0.563 -0.844 -0.844 -0.492 -0.563 -1.055 -1.055 -0.492 -0.563 -0.703 -0.703v-0.141h-0.141l-0.352 -0.492 -0.07 -0.422V47.883l0.492 -0.563 0.773 -0.703 0.563 -0.492 0.703 -0.633 0.773 -0.633 0.844 -0.773 0.563 -0.492 0.914 -0.773 0.703 -0.633z" fill="#fff"/><path d="m65.32 40.711 1.336 0.07 0.07 0.352 -0.07 83.461h-1.406l-0.07 -0.281V40.852z" fill="#fff"/><path d="m101.883 40.711 1.336 0.07 0.07 0.352 -0.07 83.461h-1.406l-0.07 -0.141V40.852z" fill="#fff"/><path d="M73.969 128.883h1.055l0.563 0.281 0.352 0.281 0.211 0.352 0.563 -0.563 0.703 -0.352h1.125l0.633 0.281 0.492 0.492 0.352 0.844v4.781h-0.844l-0.07 -0.422v-4.008l-0.211 -0.633 -0.422 -0.352 -0.281 -0.07h-0.492l-0.633 0.211 -0.422 0.633 -0.141 0.703 -0.07 3.867 -0.07 0.07h-0.703l-0.141 -0.141v-4.289l-0.211 -0.633 -0.352 -0.352 -0.211 -0.07h-0.703l-0.563 0.281 -0.281 0.352 -0.211 0.492 -0.07 0.352 -0.07 4.008h-0.703l-0.141 -0.07 -0.07 -0.914v-4.5l0.07 -0.703 0.07 -0.07h0.703l0.07 0.141v0.422l0.773 -0.563z" fill="#fff"/><path d="M84.516 128.883h1.336l0.773 0.281 0.773 0.492 0.492 0.563 0.422 0.844 0.141 0.563v1.055l-0.211 0.773 -0.352 0.633 -0.281 0.352h-0.141l-0.141 0.281 -0.984 0.563 -0.563 0.141h-1.266l-0.773 -0.281 -0.563 -0.422 -0.422 -0.422 -0.07 3.445 -0.281 0.07 -0.492 -0.07 -0.141 -0.492v-7.453l0.07 -0.773h0.773l0.07 0.07 0.07 0.914 0.352 -0.352 0.563 -0.422 0.563 -0.281zm0.281 0.844 -0.914 0.281 -0.633 0.563 -0.422 0.844 -0.07 0.281v1.055l0.281 0.703 0.633 0.703 0.492 0.281 0.633 0.141h0.773l0.703 -0.211 0.633 -0.492 0.422 -0.563 0.211 -0.633v-1.055l-0.352 -0.844 -0.492 -0.563 -0.633 -0.352 -0.563 -0.141z" fill="#fff"/><path d="m52.875 126.492 0.281 0.07 0.07 3.516 0.492 -0.563 0.703 -0.422 0.563 -0.211h1.336l0.773 0.281 0.773 0.492 0.07 0.211h0.141l0.422 0.633 0.281 0.563 0.141 0.563v1.055l-0.281 0.914 -0.563 0.844h-0.141l-0.07 0.211 -0.773 0.492 -0.844 0.281h-1.195l-0.844 -0.281 -0.563 -0.422 -0.422 -0.422 -0.07 0.914 -0.07 0.07h-0.633l-0.141 -0.141 -0.07 -2.391v-5.836l0.07 -0.352zm2.32 3.234 -0.844 0.281 -0.633 0.563 -0.422 0.773 -0.07 0.281v1.125l0.281 0.703 0.633 0.703 0.703 0.352 0.352 0.07h0.844l0.703 -0.211 0.633 -0.492 0.422 -0.563 0.211 -0.633v-1.055l-0.352 -0.844 -0.492 -0.563 -0.563 -0.352 -0.563 -0.141z" fill="#fff"/><path d="M96.609 128.883h1.336l0.844 0.281 0.703 0.563 0.422 0.563 0.352 0.773 0.141 0.703v0.773l-0.07 0.07 -5.273 0.07 0.281 0.773 0.633 0.703 0.563 0.281 0.352 0.07h0.914l0.633 -0.211 0.703 -0.633 0.422 -0.141h0.492l0.07 0.281 -0.422 0.633 -0.633 0.563 -0.844 0.352 -0.352 0.07h-1.195l-0.844 -0.281 -0.633 -0.422 -0.492 -0.492 -0.422 -0.844 -0.141 -0.492 -0.07 -0.984 0.211 -0.984 0.352 -0.703 0.633 -0.703 0.703 -0.422zm0.281 0.844 -0.703 0.211 -0.422 0.281v0.141h-0.141l-0.422 0.703 -0.141 0.352v0.281l0.492 0.07 3.938 -0.07 -0.141 -0.563 -0.281 -0.563 -0.281 -0.352 -0.563 -0.352 -0.492 -0.141z" fill="#fff"/><path d="M66.586 128.883h1.266l0.844 0.281 0.633 0.492 0.492 0.633 0.352 0.773 0.141 0.773v0.703l-0.141 0.07 -5.203 0.07 0.211 0.633 0.422 0.563 0.492 0.422 0.633 0.211h0.984l0.703 -0.281 0.563 -0.492 0.141 -0.141 0.773 -0.07 0.141 0.07 -0.07 0.352 -0.422 0.563 -0.563 0.492 -0.844 0.352 -0.352 0.07h-1.125l-0.633 -0.141 -0.773 -0.422 -0.563 -0.563 -0.422 -0.703 -0.211 -0.703 -0.07 -0.914 0.211 -1.055 0.352 -0.703 0.633 -0.703 0.703 -0.422zm0.211 0.844 -0.703 0.211 -0.563 0.422 -0.422 0.703 -0.141 0.352 0.07 0.352 4.359 -0.07 -0.141 -0.563 -0.281 -0.563 -0.281 -0.352 -0.563 -0.352 -0.492 -0.141z" fill="#fff"/><path d="M123.961 128.883h1.266l0.633 0.211 0.703 0.633 0.352 0.703 0.07 0.211v4.57l-0.07 0.07h-0.703l-0.211 -0.281h-0.211l-0.422 0.281 -0.492 0.141h-1.266l-0.703 -0.281 -0.563 -0.492 -0.281 -0.492 -0.141 -0.492v-0.492l0.211 -0.703 0.422 -0.563 0.703 -0.422 0.773 -0.141 0.914 0.07 0.703 0.281 0.422 0.281 -0.07 -1.266 -0.281 -0.563 -0.492 -0.281 -0.352 -0.07h-0.563l-0.703 0.211 -0.281 0.352 -0.352 0.703 -0.633 -0.07 -0.141 -0.141 0.07 -0.492 0.281 -0.563 0.352 -0.422 0.773 -0.422zm0.07 3.305 -0.633 0.211 -0.352 0.281 -0.211 0.563 0.07 0.633 0.422 0.492 0.563 0.211h1.055l0.703 -0.281 0.352 -0.352 0.141 -0.563 -0.211 -0.633 -0.633 -0.422 -0.492 -0.141zm2.039 2.531 -0.07 0.141h0.141z" fill="#fff"/><path d="M109.688 128.883h1.125l0.633 0.211 0.422 0.281 0.492 0.563 0.281 0.703v4.57l-0.07 0.07h-0.703l-0.141 -0.492 -0.563 0.422 -0.633 0.211h-1.195l-0.633 -0.211 -0.422 -0.281 -0.422 -0.492 -0.211 -0.422 -0.07 -0.352v-0.563l0.211 -0.633 0.422 -0.563 0.563 -0.352 0.422 -0.141 0.703 -0.07 0.914 0.141 0.703 0.352 0.281 0.211 -0.07 -0.141v-0.844l-0.141 -0.633 -0.281 -0.352 -0.422 -0.211 -0.352 -0.07h-0.633l-0.633 0.211 -0.352 0.422 -0.281 0.633 -0.633 -0.07 -0.141 -0.141 0.07 -0.492 0.281 -0.563 0.352 -0.422 0.773 -0.422zm-0.07 3.305 -0.633 0.281 -0.352 0.352 -0.141 0.352v0.492l0.211 0.422 0.422 0.352 0.352 0.141h1.125l0.703 -0.281 0.422 -0.492 0.07 -0.492 -0.211 -0.563 -0.633 -0.422 -0.492 -0.141z" fill="#fff"/><path d="M38.25 126.563h0.844l0.07 3.094 0.563 -0.492 0.633 -0.281h1.125l0.703 0.281 0.352 0.281 0.492 0.773 0.141 0.563v4.43l-0.07 0.07h-0.773l-0.07 -0.07v-3.938l-0.141 -0.773 -0.281 -0.422 -0.352 -0.211 -0.281 -0.07h-0.703l-0.563 0.211 -0.211 0.07 -0.492 0.984 -0.07 0.422 -0.07 3.797h-0.773l-0.07 -0.07 -0.07 -2.109v-6.188z" fill="#fff"/><path d="M103.57 128.883h1.055l0.703 0.211 0.703 0.633 0.281 0.703v0.352l-0.633 0.141 -0.281 -0.281 -0.352 -0.563 -0.281 -0.211 -0.281 -0.07h-0.844l-0.492 0.211 -0.281 0.352v0.563l0.352 0.422 0.703 0.281 1.195 0.352 0.703 0.352 0.492 0.563 0.141 0.422v0.633l-0.281 0.633 -0.563 0.492 -0.633 0.281 -0.281 0.07h-1.266l-0.703 -0.281 -0.492 -0.352 -0.422 -0.703 -0.07 -0.492 0.281 -0.211h0.422l0.211 0.141 0.211 0.563 0.352 0.281 0.422 0.141h0.984l0.563 -0.211 0.281 -0.352 0.07 -0.352 -0.211 -0.422v-0.141l-0.352 -0.141 -1.336 -0.422 -0.914 -0.352 -0.563 -0.492 -0.211 -0.352 -0.07 -0.352v-0.492l0.281 -0.703 0.492 -0.492 0.633 -0.281z" fill="#fff"/><path d="M45.141 129.023h0.773l0.07 0.07 0.07 4.289 0.211 0.633 0.422 0.352 0.422 0.141h0.703l0.633 -0.281 0.422 -0.492 0.211 -0.703 0.07 -3.938 0.07 -0.07h0.773v6.258h-0.703l-0.211 -0.633 -0.211 0.07 -0.141 0.281 -0.422 0.281 -0.422 0.141h-1.125l-0.633 -0.281 -0.492 -0.422 -0.352 -0.563 -0.211 -0.914v-4.148z" fill="#fff"/><path d="M129.094 126.281h0.773l0.07 0.07v8.93h-0.773l-0.141 -0.422v-8.297z" fill="#fff"/><path d="M117.141 128.883h0.352l0.07 0.07v0.703l-0.563 0.211 -0.633 0.281 -0.211 0.07 -0.141 0.281 -0.281 0.633 -0.07 0.563 -0.07 3.586h-0.703l-0.141 -0.07 -0.07 -0.703v-4.711l0.07 -0.773h0.773l0.07 0.07v0.703l0.563 -0.492 0.703 -0.352z" fill="#fff"/><path d="M92.672 128.883h0.352l0.07 0.07v0.703l-0.563 0.211 -0.633 0.281 -0.211 0.07 -0.141 0.281 -0.281 0.703 -0.07 0.492 -0.07 3.586h-0.703l-0.141 -0.141 -0.07 -0.844v-4.57l0.07 -0.633 0.07 -0.07h0.703l0.07 0.07v0.703l0.563 -0.492 0.492 -0.281z" fill="#fff"/><path d="M119.25 129.023h0.773l0.07 0.07v6.188h-0.703l-0.141 -0.07 -0.07 -0.703v-5.133z" fill="#fff"/><path d="M119.32 126.563h0.773v1.195l-0.07 0.07h-0.703l-0.07 -0.07 -0.07 -0.703z" fill="#fff"/></svg>