<?xml version="1.0" encoding="UTF-8"?>
<svg version="1.1" viewBox="0 0 2400 2400" width="1280" height="1280" xmlns="http://www.w3.org/2000/svg">
<path transform="translate(1146,595)" d="m0 0h140l5 5 13 17 12 17 14 19 26 36 2 5 1 19v134l-3 2h-95l-1-1v-156l-94 1-1 966h95v-429l1-2h2v-48h-44l-1-84 1-8 1-1h136l2 1 1 115v379l-1 43-3 25-5 22-3 9-7 11-10 13-11 14-10 13-22 28h-141l-11-13-9-11-11-13-9-11-22-26-7-11-4-13-4-24-2-31v-910l2-6 9-12 14-18 9-11 11-14 10-13 12-16h2l2-4 6-7z" fill="#fff"/>
<path transform="translate(524,599)" d="m0 0h96l2 1 3 34 27 345 8 103 6 79 9 110 5 77 2 43 2 1 7-113 11-134 7-93 11-143 14-178 9-116 2-15 2-1h95l2 4-8 80-10 102-9 90-9 92-10 102-9 89-7 73-12 122-9 89-7 73-12 122-6 60-6 59-1 7-1 1h-90l-1-3-18-181-13-133-19-192-23-234-28-284-12-122-1-14z" fill="#fff"/>
<path transform="translate(1673,595)" d="m0 0h104l5 3 7 7v2l4 2 7 8 20 20 7 8 21 21 7 8 11 11v2h2l3 4 1 4v141l-2 2h-97l-1-1v-145h-96v391h90l8 7 18 18 7 8 11 11 7 8 11 11 7 8 11 11v2h2l7 8 5 6 1 5v257l-1 220-10 11-5 6h-2l-2 4-42 42-1 2h-2v2h-2v2h-2v2h-2v2h-2l-2 4h-2l-2 4h-2l-2 4h-2l-2 4-8 8h-97l-16-17-8-8-7-8-8-8-7-8-13-13-7-8-9-10-6-14-6-21-4-22-2-23v-154h99l1 6v203h95v-463h-101l-10-10v-2h-2l-7-8-9-9-7-8-12-12-7-8-15-15-7-8-10-10v-2h-2l-5-7-1-6v-406l7-8 11-10 8-7 10-9 11-9 12-11 8-7 13-11 10-9z" fill="#fff"/>
<path transform="translate(929,579)" d="m0 0 19 1 1 5-1 1187h-20l-1-4v-1187z" fill="#fff"/>
<path transform="translate(1449,579)" d="m0 0 19 1 1 5-1 1187h-20l-1-2v-1189z" fill="#fff"/>
<path transform="translate(1052,1833)" d="m0 0h15l8 4 5 4 3 5 8-8 10-5h16l9 4 7 7 5 12v68h-12l-1-6v-57l-3-9-6-5-4-1h-7l-9 3-6 9-2 10-1 55-1 1h-10l-2-2v-61l-3-9-5-5-3-1h-10l-8 4-4 5-3 7-1 5-1 57h-10l-2-1-1-13v-64l1-10 1-1h10l1 2v6l11-8z" fill="#fff"/>
<path transform="translate(1202,1833)" d="m0 0h19l11 4 11 7 7 8 6 12 2 8v15l-3 11-5 9-4 5h-2l-2 4-14 8-8 2h-18l-11-4-8-6-6-6-1 49-4 1-7-1-2-7v-106l1-11h11l1 1 1 13 5-5 8-6 8-4zm4 12-13 4-9 8-6 12-1 4v15l4 10 9 10 7 4 9 2h11l10-3 9-7 6-8 3-9v-15l-5-12-7-8-9-5-8-2z" fill="#fff"/>
<path transform="translate(752,1799)" d="m0 0 4 1 1 50 7-8 10-6 8-3h19l11 4 11 7 1 3h2l6 9 4 8 2 8v15l-4 13-8 12h-2l-1 3-11 7-12 4h-17l-12-4-8-6-6-6-1 13-1 1h-9l-2-2-1-34v-83l1-5zm33 46-12 4-9 8-6 11-1 4v16l4 10 9 10 10 5 5 1h12l10-3 9-7 6-8 3-9v-15l-5-12-7-8-8-5-8-2z" fill="#fff"/>
<path transform="translate(1374,1833)" d="m0 0h19l12 4 10 8 6 8 5 11 2 10v11l-1 1-75 1 4 11 9 10 8 4 5 1h13l9-3 10-9 6-2h7l1 4-6 9-9 8-12 5-5 1h-17l-12-4-9-6-7-7-6-12-2-7-1-14 3-14 5-10 9-10 10-6zm4 12-10 3-6 4v2h-2l-6 10-2 5v4l7 1 56-1-2-8-4-8-4-5-8-5-7-2z" fill="#fff"/>
<path transform="translate(947,1833)" d="m0 0h18l12 4 9 7 7 9 5 11 2 11v10l-2 1-74 1 3 9 6 8 7 6 9 3h14l10-4 8-7 2-2 11-1 2 1-1 5-6 8-8 7-12 5-5 1h-16l-9-2-11-6-8-8-6-10-3-10-1-13 3-15 5-10 9-10 10-6zm3 12-10 3-8 6-6 10-2 5 1 5 62-1-2-8-4-8-4-5-8-5-7-2z" fill="#fff"/>
<path transform="translate(1763,1833)" d="m0 0h18l9 3 10 9 5 10 1 3v65l-1 1h-10l-3-4h-3l-6 4-7 2h-18l-10-4-8-7-4-7-2-7v-7l3-10 6-8 10-6 11-2 13 1 10 4 6 4-1-18-4-8-7-4-5-1h-8l-10 3-4 5-5 10-9-1-2-2 1-7 4-8 5-6 11-6zm1 47-9 3-5 4-3 8 1 9 6 7 8 3h15l10-4 5-5 2-8-3-9-9-6-7-2zm29 36-1 2h2z" fill="#fff"/>
<path transform="translate(1560,1833)" d="m0 0h16l9 3 6 4 7 8 4 10v65l-1 1h-10l-2-7-8 6-9 3h-17l-9-3-6-4-6-7-3-6-1-5v-8l3-9 6-8 8-5 6-2 10-1 13 2 10 5 4 3-1-2v-12l-2-9-4-5-6-3-5-1h-9l-9 3-5 6-4 9-9-1-2-2 1-7 4-8 5-6 11-6zm-1 47-9 4-5 5-2 5v7l3 6 6 5 5 2h16l10-4 6-7 1-7-3-8-9-6-7-2z" fill="#fff"/>
<path transform="translate(544,1800)" d="m0 0h12l1 44 8-7 9-4h16l10 4 5 4 7 11 2 8v63l-1 1h-11l-1-1v-56l-2-11-4-6-5-3-4-1h-10l-8 3-3 1-7 14-1 6-1 54h-11l-1-1-1-30v-88z" fill="#fff"/>
<path transform="translate(1473,1833)" d="m0 0h15l10 3 10 9 4 10v5l-9 2-4-4-5-8-4-3-4-1h-12l-7 3-4 5v8l5 6 10 4 17 5 10 5 7 8 2 6v9l-4 9-8 7-9 4-4 1h-18l-10-4-7-5-6-10-1-7 4-3h6l3 2 3 8 5 4 6 2h14l8-3 4-5 1-5-3-6v-2l-5-2-19-6-13-5-8-7-3-5-1-5v-7l4-10 7-7 9-4z" fill="#fff"/>
<path transform="translate(642,1835)" d="m0 0h11l1 1 1 61 3 9 6 5 6 2h10l9-4 6-7 3-10 1-56 1-1h11v89h-10l-3-9-3 1-2 4-6 4-6 2h-16l-9-4-7-6-5-8-3-13v-59z" fill="#fff"/>
<path transform="translate(1836,1796)" d="m0 0h11l1 1v127h-11l-2-6v-118z" fill="#fff"/>
<path transform="translate(1666,1833)" d="m0 0h5l1 1v10l-8 3-9 4-3 1-2 4-4 9-1 8-1 51h-10l-2-1-1-10v-67l1-11h11l1 1v10l8-7 10-5z" fill="#fff"/>
<path transform="translate(1318,1833)" d="m0 0h5l1 1v10l-8 3-9 4-3 1-2 4-4 10-1 7-1 51h-10l-2-2-1-12v-65l1-9 1-1h10l1 1v10l8-7 7-4z" fill="#fff"/>
<path transform="translate(1696,1835)" d="m0 0h11l1 1v88h-10l-2-1-1-10v-73z" fill="#fff"/>
<path transform="translate(1697,1800)" d="m0 0h11v17l-1 1h-10l-1-1-1-10z" fill="#fff"/>
</svg>
